<svg width="115" height="115" viewBox="0 0 115 115" fill="none" xmlns="http://www.w3.org/2000/svg">
<path d="M0.949951 57.6C0.949951 30.7 26.25 8.90002 57.45 8.90002C88.75 8.90002 114.05 30.6 114.05 57.5C114.05 84.3 88.75 106.1 57.45 106.1C26.25 106.1 0.949951 84.3 0.949951 57.5" fill="#003974"/>
<path d="M50.6499 24.7L63.6499 20.4V91.4L50.6499 95.8V24.7Z" fill="#ED1D24"/>
<path d="M99.95 62.6001C98.75 72.8001 93.05 83.0001 80.65 83.0001C73.35 83.0001 67.65 78.0001 63.75 72.0001V65.0001C68.75 67.4001 73.25 70.0001 78.85 70.0001C85.75 70.2001 91.85 67.6001 94.45 62.6001H99.95ZM58.45 69.0001C52.65 75.9001 47.15 82.9001 36.85 82.9001C22.25 82.9001 15.35 68.8001 15.35 56.9001C15.35 45.6001 20.75 32.2001 34.95 32.2001C41.15 32.2001 47.05 36.0001 50.65 40.0001V49.6001C47.65 47.6001 41.05 45.6001 36.65 45.6001C27.65 45.4001 19.65 49.4001 19.85 58.3001C19.95 64.3001 26.05 68.5001 32.05 68.5001C41.35 68.5001 46.95 60.1001 51.65 53.7001L57.15 46.3001C62.35 39.0001 68.45 32.3001 78.75 32.3001C90.95 32.3001 97.75 42.2001 99.75 52.3001H94.15C92.9503 50.6351 91.3734 49.2778 89.5484 48.3392C87.7234 47.4007 85.7022 46.9075 83.65 46.9001C74.05 46.9001 68.35 55.7001 63.65 62.2001L58.35 68.9001" fill="white"/>
</svg>
