<svg width="33" height="32" viewBox="0 0 33 32" fill="none" xmlns="http://www.w3.org/2000/svg">
<path fill-rule="evenodd" clip-rule="evenodd" d="M21.4452 8.95609C22.37 7.77662 23.776 7 25.8952 7C29.4454 7 32.166 9.72025 32.166 13.5411C32.166 17.3619 29.4454 19.9493 25.8952 19.9493C23.776 19.9493 22.37 19.1727 21.4452 17.9932V24.8707H18.8697V7.26164H21.4452V8.95609ZM21.4618 13.5411C21.4618 15.8336 23.1912 17.6443 25.5842 17.6443C27.9896 17.6443 29.5905 15.8294 29.5947 13.5411C29.5947 11.2486 27.9938 9.30495 25.5883 9.30495H25.5842C23.1788 9.3091 21.4618 11.2486 21.4618 13.5411ZM5.62792 13.919C6.00532 13.6532 6.36199 13.3542 6.68963 13.0261C7.30343 12.4156 7.81356 11.7137 8.2034 10.9454V14.2596C8.2034 16.3195 9.33562 17.5072 11.2475 17.5072C13.2134 17.5072 14.7603 16.3195 14.7603 14.2596V7.25747H17.3317V19.6876H14.7437V18.1219C14.329 18.7573 13.1429 19.9451 10.8411 19.9451C7.432 19.9451 5.62377 17.8229 5.62377 14.8036L5.62792 13.919ZM0 15.3435V12.8516C1.50133 12.8474 2.94045 12.2578 4.01046 11.2153C4.53302 10.6962 4.9519 10.0815 5.23806 9.40458C5.52423 8.72347 5.67353 7.99669 5.67353 7.2616H8.19925C8.19925 8.32478 7.98774 9.3755 7.57301 10.3556C7.16242 11.3358 6.55691 12.2246 5.79795 12.9721C4.251 14.4921 2.16905 15.3435 0 15.3435Z" fill="white"/>
</svg>
