<svg width="48" height="41" viewBox="0 0 48 41" fill="none" xmlns="http://www.w3.org/2000/svg">
<path d="M30.4482 0.034687C30.4482 0.0563965 34.399 7.86301 39.2241 17.3817L48 34.6883V37.8426V41H39.0511H30.1022V30.1291V19.2581H32.1153C34.2952 19.2581 34.2008 19.2674 34.0655 19.0937C34.0309 19.0503 33.8485 18.7929 33.6598 18.523C33.4742 18.2532 33.1942 17.85 33.037 17.6298C32.6658 17.0963 32.2066 16.4419 31.7788 15.8309C31.59 15.558 31.2944 15.1392 31.1277 14.9004C30.8477 14.5003 30.5678 14.1033 29.8506 13.0736C29.7028 12.8627 29.4197 12.4595 29.2215 12.1742C29.0233 11.8919 28.7465 11.4949 28.605 11.2933C28.1772 10.6792 27.6739 9.95966 27.309 9.4417C27.114 9.16876 26.8655 8.81208 26.7554 8.6508C26.6422 8.48952 26.3591 8.08322 26.1263 7.75135C25.8904 7.41948 25.579 6.97286 25.4312 6.75885C25.2802 6.54485 24.9845 6.11993 24.7675 5.81288C24.5505 5.50583 24.302 5.14915 24.217 5.02198C24.129 4.89482 24.0472 4.78627 24.0315 4.78006C24.0189 4.77386 23.8585 4.98476 23.6792 5.2453C23.4967 5.50583 23.2231 5.89972 23.0658 6.12304C22.9117 6.34325 22.6412 6.73094 22.465 6.98217C22.2889 7.23649 21.9995 7.6459 21.8233 7.89713C21.6472 8.15145 21.383 8.52984 21.232 8.74385C20.4896 9.80458 20.1216 10.3318 19.8574 10.7071C19.7001 10.9335 19.4202 11.3336 19.2346 11.5973C18.8005 12.2207 18.5489 12.5805 17.9764 13.3962C17.7185 13.7622 17.4071 14.2057 17.2844 14.3794C17.1649 14.5562 16.9195 14.9035 16.7434 15.1548C16.5672 15.4091 16.2841 15.8123 16.1143 16.0542C15.8249 16.4667 15.372 17.1149 14.7083 18.064C14.1641 18.8425 13.903 19.224 13.903 19.2395C13.903 19.2488 14.8026 19.2581 15.9004 19.2581H17.8978V30.1291V41H8.94889H0V37.8209C0 36.0716 0.00943375 34.6418 0.0220184 34.6418C0.0377464 34.6418 3.99476 26.8476 8.82307 17.3196L17.599 0.00056839H24.022C29.1429 -0.00253296 30.4482 0.0067749 30.4482 0.034687Z" fill="#00A8E8"/>
</svg>
