<svg width="128" height="130" viewBox="0 0 128 130" fill="none" xmlns="http://www.w3.org/2000/svg">
<path d="M21.4627 19.1443C32.3233 8.53735 47.0627 3.10451 61.802 1.81098C84.5576 1.29357 107.055 13.7115 118.432 33.3732C103.434 47.0846 89.2121 61.0548 74.9899 75.0249C62.0606 70.8856 49.3899 65.7115 36.7192 61.0548C25.8586 68.2985 14.7394 75.2836 3.87881 82.2687C-3.103 60.0199 4.65457 34.6667 21.4627 19.1443Z" fill="#5367FF" stroke="#5367FF" stroke-width="0.125"/>
<path d="M118.432 33.373C120.242 37.2536 121.794 41.1342 123.604 45.0148C106.537 56.9153 94.9009 75.5422 76.7999 86.4079C63.8706 84.8556 52.7514 75.8009 39.5635 74.2487C28.4443 79.6815 19.1352 87.9601 7.49886 92.0994C6.20594 88.9949 4.91301 85.6318 3.87866 82.2686C14.7393 75.2835 25.8585 68.2984 36.7191 61.0546C49.3898 65.7114 62.0605 70.8855 74.9898 75.0248C89.212 61.0546 103.434 47.0845 118.432 33.373Z" fill="#00FFC4" stroke="#00FFC4" stroke-width="0.125"/>
<path d="M76.8 86.4082C94.9011 75.5425 106.537 56.9156 123.604 45.0151C124.638 49.4131 125.414 53.8112 126.449 58.4679C111.192 69.0748 98.0041 82.5276 84.8162 95.4629C82.4889 97.2738 80.1617 99.8609 77.0586 100.637C63.8707 99.8609 52.7516 90.5475 39.5637 89.5126C30.5132 92.8758 23.0142 99.3435 14.998 104.259C12.4122 100.378 9.8263 96.239 7.49902 92.0997C19.1354 87.9604 28.4445 79.6818 39.5637 74.249C52.7516 75.8012 63.8707 84.8559 76.8 86.4082Z" fill="#00EBB4" stroke="#00EBB4" stroke-width="0.125"/>
<path d="M84.8162 95.4628C98.0041 82.5275 111.192 69.0747 126.449 58.4678C126.707 63.6419 126.449 68.816 126.19 73.9902C112.485 83.5623 100.073 94.6867 88.695 107.105C85.0748 110.468 81.7132 114.607 77.0587 116.159C64.3879 115.124 53.7859 106.846 41.3738 104.776C34.6506 106.07 28.9617 109.692 23.0142 112.796C20.4283 109.95 17.5839 107.105 14.998 104.259C23.0142 99.3434 30.5132 92.8757 39.5637 89.5125C52.7516 90.5474 63.8708 99.8608 77.0587 100.637C80.1617 99.8608 82.489 97.2737 84.8162 95.4628Z" fill="#00D8A5" stroke="#00D8A5" stroke-width="0.125"/>
<path d="M88.695 107.105C100.073 94.6868 112.485 83.5624 126.19 73.9902C122.311 104 94.6424 128.06 64.3879 128.06C49.3899 128.06 34.6505 122.11 23.0142 112.796C28.9616 109.692 34.6505 106.07 41.3738 104.776C53.7859 106.846 64.3879 115.125 77.0586 116.159C81.7131 114.607 85.0748 110.468 88.695 107.105Z" fill="#00C798" stroke="#00C798" stroke-width="0.125"/>
</svg>
